<svg width="234" height="205" viewBox="0 0 234 205" fill="none" xmlns="http://www.w3.org/2000/svg">
<g opacity="0.2" clip-path="url(#clip0_3240_6606)">
<path d="M17.3645 -48.1999C11.9585 -40.7289 8.6822 -32.4459 9.6651 -23.1885C11.7947 -5.16076 29.8146 8.31941 31.4528 26.5095C33.7462 52.333 2.62098 70.6855 0.818991 96.6714C-0.491544 115.024 14.252 131.265 31.2889 138.249C50.4555 146.207 73.8813 139.223 91.2459 149.618C111.559 161.798 110.74 195.418 133.674 203.051C146.78 207.436 161.032 198.016 167.421 185.835C173.646 173.655 174.137 159.525 175.284 145.882C176.758 128.179 177.577 113.4 195.27 103.817C207.392 97.321 221.48 95.5345 234.586 91.1494C257.848 83.1912 277.833 66.138 289.137 44.5372C298.147 27.3216 300.112 2.79741 284.058 -8.24658C274.393 -14.9055 261.615 -14.2558 250.312 -11.3324C228.852 -5.8104 205.099 4.42153 183.475 -7.75935C164.964 -18.3161 164.308 -42.5154 154.315 -59.7311C145.961 -74.3481 132.692 -87.3411 116.146 -91.5638C92.5565 -97.573 68.4754 -85.5546 47.5068 -73.2113C36.5311 -66.7148 24.9001 -58.2694 17.3645 -48.1999Z" stroke="#167FD2" stroke-miterlimit="10" stroke-linecap="round" stroke-linejoin="round"/>
<path d="M17.3645 -48.1999C11.9585 -40.7289 8.6822 -32.4459 9.6651 -23.1885C11.7947 -5.16076 29.8146 8.31941 31.4528 26.5095C33.7462 52.333 2.62098 70.6855 0.818991 96.6714C-0.491544 115.024 14.252 131.265 31.2889 138.249C50.4555 146.207 73.8813 139.223 91.2459 149.618C111.559 161.798 110.74 195.418 133.674 203.051C146.78 207.436 161.032 198.016 167.421 185.835C173.646 173.655 174.137 159.525 175.284 145.882C176.758 128.179 177.577 113.4 195.27 103.817C207.392 97.321 221.48 95.5345 234.586 91.1494C257.848 83.1912 277.833 66.138 289.137 44.5372C298.147 27.3216 300.112 2.79741 284.058 -8.24658C274.393 -14.9055 261.615 -14.2558 250.312 -11.3324C228.852 -5.8104 205.099 4.42153 183.475 -7.75935C164.964 -18.3161 164.308 -42.5154 154.315 -59.7311C145.961 -74.3481 132.692 -87.3411 116.146 -91.5638C92.5565 -97.573 68.4754 -85.5546 47.5068 -73.2113C36.5311 -66.7148 24.9001 -58.2694 17.3645 -48.1999Z" stroke="url(#paint0_linear_3240_6606)" stroke-miterlimit="10" stroke-linecap="round" stroke-linejoin="round"/>
<path d="M22.9342 -45.6012C17.8559 -38.6175 14.7434 -30.6593 15.5624 -21.8891C16.7092 -9.54579 25.3915 0.523736 30.9612 11.5677C33.0908 15.9529 34.8928 20.5004 35.3843 25.5351C37.6777 49.8969 9.00977 67.5998 9.00977 91.7991C9.00977 101.057 12.7776 109.015 18.0197 116.811C22.9342 124.444 29.6507 130.778 38.1692 134.838C55.0423 142.959 76.3385 138.086 93.0478 145.395C94.0307 145.882 94.8498 146.207 95.8327 146.694C115.655 157.576 116.31 187.297 138.425 194.606C151.039 198.828 164.636 190.708 170.861 180.151C177.25 169.594 178.396 156.926 180.035 144.421C182 129.479 182.983 116.161 194.778 106.579C195.925 105.604 197.399 104.63 198.874 103.818C209.685 97.1587 222.136 94.885 233.93 90.175C254.735 81.4048 273.574 64.514 285.041 43.8877C289.792 35.4423 293.396 25.5351 293.56 15.7904C293.724 5.07126 289.628 -5.16067 280.454 -10.6827C270.953 -16.5295 258.667 -15.7174 247.855 -12.6316C230.163 -7.59685 211.16 0.848559 192.649 -4.1862C189.536 -4.99826 186.587 -6.29756 183.639 -7.92167C165.783 -17.8288 164.144 -40.8912 154.315 -57.1324C145.797 -70.9374 133.019 -82.9559 117.129 -87.0162C94.686 -92.5382 71.5878 -81.4942 51.6022 -69.6381C41.1179 -63.3041 29.9783 -55.3459 22.9342 -45.6012Z" stroke="#167FD2" stroke-width="1.0007" stroke-miterlimit="10" stroke-linecap="round" stroke-linejoin="round"/>
<path d="M22.9342 -45.6012C17.8559 -38.6175 14.7434 -30.6593 15.5624 -21.8891C16.7092 -9.54579 25.3915 0.523736 30.9612 11.5677C33.0908 15.9529 34.8928 20.5004 35.3843 25.5351C37.6777 49.8969 9.00977 67.5998 9.00977 91.7991C9.00977 101.057 12.7776 109.015 18.0197 116.811C22.9342 124.444 29.6507 130.778 38.1692 134.838C55.0423 142.959 76.3385 138.086 93.0478 145.395C94.0307 145.882 94.8498 146.207 95.8327 146.694C115.655 157.576 116.31 187.297 138.425 194.606C151.039 198.828 164.636 190.708 170.861 180.151C177.25 169.594 178.396 156.926 180.035 144.421C182 129.479 182.983 116.161 194.778 106.579C195.925 105.604 197.399 104.63 198.874 103.818C209.685 97.1587 222.136 94.885 233.93 90.175C254.735 81.4048 273.574 64.514 285.041 43.8877C289.792 35.4423 293.396 25.5351 293.56 15.7904C293.724 5.07126 289.628 -5.16067 280.454 -10.6827C270.953 -16.5295 258.667 -15.7174 247.855 -12.6316C230.163 -7.59685 211.16 0.848559 192.649 -4.1862C189.536 -4.99826 186.587 -6.29756 183.639 -7.92167C165.783 -17.8288 164.144 -40.8912 154.315 -57.1324C145.797 -70.9374 133.019 -82.9559 117.129 -87.0162C94.686 -92.5382 71.5878 -81.4942 51.6022 -69.6381C41.1179 -63.3041 29.9783 -55.3459 22.9342 -45.6012Z" stroke="url(#paint1_linear_3240_6606)" stroke-width="1.0007" stroke-miterlimit="10" stroke-linecap="round" stroke-linejoin="round"/>
<path d="M28.5041 -43.0027C23.5896 -36.3439 20.8047 -28.8729 21.46 -20.5899C22.4429 -9.05869 30.1423 0.686013 35.2206 11.0804C37.1864 15.3031 38.8246 19.6882 39.316 24.2357C41.6095 47.2982 15.3987 64.189 17.2007 86.7643C17.856 96.0217 22.1152 103.33 26.7021 111.776C31.1252 119.896 36.5311 126.555 44.8858 131.103C60.6122 139.71 81.0893 135.813 97.3072 142.471C98.2901 142.796 99.1092 143.284 99.9283 143.771C119.259 153.515 121.388 179.339 142.684 186.323C154.807 190.221 167.585 183.724 173.973 174.629C180.362 165.534 182.164 154.652 184.458 142.959C187.079 129.154 188.226 115.998 198.546 106.578C199.693 105.604 200.839 104.63 202.15 103.655C211.651 96.8338 222.463 94.0728 232.784 89.038C251.459 79.7805 269.151 63.0521 280.618 43.4003C285.86 34.4677 290.283 24.5605 290.775 14.1662C291.266 2.95978 286.352 -7.9218 276.687 -13.2814C267.185 -18.4786 255.718 -17.5041 245.398 -14.2559C228.525 -8.89628 210.505 -0.28845 192.485 -4.83598C189.536 -5.64804 186.587 -6.62251 183.639 -8.24663C166.438 -17.5041 163.981 -39.2673 153.988 -54.6964C145.797 -67.6893 133.347 -78.7333 118.276 -82.4688C96.6519 -87.666 74.7005 -77.2716 55.6977 -65.9028C45.7049 -60.056 35.2206 -52.2602 28.5041 -43.0027Z" stroke="#167FD2" stroke-width="1.0013" stroke-miterlimit="10" stroke-linecap="round" stroke-linejoin="round"/>
<path d="M28.5041 -43.0027C23.5896 -36.3439 20.8047 -28.8729 21.46 -20.5899C22.4429 -9.05869 30.1423 0.686013 35.2206 11.0804C37.1864 15.3031 38.8246 19.6882 39.316 24.2357C41.6095 47.2982 15.3987 64.189 17.2007 86.7643C17.856 96.0217 22.1152 103.33 26.7021 111.776C31.1252 119.896 36.5311 126.555 44.8858 131.103C60.6122 139.71 81.0893 135.813 97.3072 142.471C98.2901 142.796 99.1092 143.284 99.9283 143.771C119.259 153.515 121.388 179.339 142.684 186.323C154.807 190.221 167.585 183.724 173.973 174.629C180.362 165.534 182.164 154.652 184.458 142.959C187.079 129.154 188.226 115.998 198.546 106.578C199.693 105.604 200.839 104.63 202.15 103.655C211.651 96.8338 222.463 94.0728 232.784 89.038C251.459 79.7805 269.151 63.0521 280.618 43.4003C285.86 34.4677 290.283 24.5605 290.775 14.1662C291.266 2.95978 286.352 -7.9218 276.687 -13.2814C267.185 -18.4786 255.718 -17.5041 245.398 -14.2559C228.525 -8.89628 210.505 -0.28845 192.485 -4.83598C189.536 -5.64804 186.587 -6.62251 183.639 -8.24663C166.438 -17.5041 163.981 -39.2673 153.988 -54.6964C145.797 -67.6893 133.347 -78.7333 118.276 -82.4688C96.6519 -87.666 74.7005 -77.2716 55.6977 -65.9028C45.7049 -60.056 35.2206 -52.2602 28.5041 -43.0027Z" stroke="url(#paint2_linear_3240_6606)" stroke-width="1.0013" stroke-miterlimit="10" stroke-linecap="round" stroke-linejoin="round"/>
<path d="M34.0738 -40.4041C29.4869 -34.07 26.8658 -27.0863 27.3573 -19.453C28.0125 -8.5714 34.8928 0.68607 39.4797 10.5932C41.2817 14.4911 42.756 18.7138 43.2475 23.0989C45.5409 44.6996 22.2789 61.1032 25.3915 81.7295C26.8658 91.3118 31.4527 97.6459 35.5481 106.903C39.3159 115.349 43.4113 122.332 51.6022 127.53C66.018 136.625 86.0037 133.701 101.73 139.71C102.549 140.035 103.532 140.36 104.351 140.847C123.354 149.455 126.63 171.218 147.435 178.04C159.066 181.775 171.188 176.578 177.577 169.107C183.966 161.636 186.587 152.379 189.372 141.659C192.648 128.991 193.959 116.161 202.805 106.741C203.788 105.766 204.771 104.792 205.918 103.818C214.108 96.9962 223.118 93.748 232.292 88.226C248.674 78.3189 265.219 61.7529 276.687 43.0755C282.256 33.8181 287.662 23.7485 288.318 12.867C289.137 1.33572 283.403 -10.5203 273.083 -15.3927C263.745 -19.9402 252.769 -18.8033 242.94 -15.3927C226.722 -9.87069 209.685 -0.938051 192.485 -4.99834C189.536 -5.64799 186.751 -6.62246 183.966 -8.08416C167.257 -16.5296 164.144 -37.3183 154.152 -51.7729C145.633 -64.2786 133.674 -74.5106 119.259 -77.9212C98.7814 -82.6311 77.8129 -73.0489 59.793 -62.3297C50.2916 -56.6453 40.4626 -49.3367 34.0738 -40.4041Z" stroke="#167FD2" stroke-width="1.002" stroke-miterlimit="10" stroke-linecap="round" stroke-linejoin="round"/>
<path d="M34.0738 -40.4041C29.4869 -34.07 26.8658 -27.0863 27.3573 -19.453C28.0125 -8.5714 34.8928 0.68607 39.4797 10.5932C41.2817 14.4911 42.756 18.7138 43.2475 23.0989C45.5409 44.6996 22.2789 61.1032 25.3915 81.7295C26.8658 91.3118 31.4527 97.6459 35.5481 106.903C39.3159 115.349 43.4113 122.332 51.6022 127.53C66.018 136.625 86.0037 133.701 101.73 139.71C102.549 140.035 103.532 140.36 104.351 140.847C123.354 149.455 126.63 171.218 147.435 178.04C159.066 181.775 171.188 176.578 177.577 169.107C183.966 161.636 186.587 152.379 189.372 141.659C192.648 128.991 193.959 116.161 202.805 106.741C203.788 105.766 204.771 104.792 205.918 103.818C214.108 96.9962 223.118 93.748 232.292 88.226C248.674 78.3189 265.219 61.7529 276.687 43.0755C282.256 33.8181 287.662 23.7485 288.318 12.867C289.137 1.33572 283.403 -10.5203 273.083 -15.3927C263.745 -19.9402 252.769 -18.8033 242.94 -15.3927C226.722 -9.87069 209.685 -0.938051 192.485 -4.99834C189.536 -5.64799 186.751 -6.62246 183.966 -8.08416C167.257 -16.5296 164.144 -37.3183 154.152 -51.7729C145.633 -64.2786 133.674 -74.5106 119.259 -77.9212C98.7814 -82.6311 77.8129 -73.0489 59.793 -62.3297C50.2916 -56.6453 40.4626 -49.3367 34.0738 -40.4041Z" stroke="url(#paint3_linear_3240_6606)" stroke-width="1.002" stroke-miterlimit="10" stroke-linecap="round" stroke-linejoin="round"/>
<path d="M39.6435 -37.8054C35.5481 -31.9586 32.927 -25.2997 33.2546 -18.1536C33.7461 -7.92168 39.6435 0.848553 43.7389 10.106C45.3771 13.8415 46.6876 17.7394 47.1791 21.7997C49.4725 42.1011 29.323 57.6927 33.5823 76.6948C35.7119 86.4395 40.7902 91.9615 44.3942 101.869C47.5067 110.639 50.4554 118.11 58.4824 123.957C71.7516 133.539 90.9182 131.752 106.153 136.95C106.972 137.274 107.791 137.599 108.774 137.924C127.286 145.233 132.036 163.098 152.022 169.594C163.161 173.167 174.465 169.432 180.854 163.423C187.243 157.413 190.683 149.78 193.959 140.035C197.891 128.504 199.201 115.836 206.737 106.416C207.556 105.442 208.375 104.467 209.194 103.493C215.91 96.5091 223.446 92.7736 231.145 86.9268C245.234 76.37 260.796 59.9664 272.1 42.2636C278.161 32.6813 284.386 22.4493 285.369 11.0805C286.352 -0.937979 280.127 -13.4437 269.151 -18.1536C259.977 -22.0515 249.657 -20.7522 240.319 -17.1792C224.92 -11.3323 208.866 -2.23727 192.157 -5.81033C189.372 -6.45997 186.587 -7.27203 183.966 -8.73374C167.912 -16.5295 163.817 -36.0189 153.824 -49.6615C145.633 -60.7055 134.166 -70.1254 120.569 -73.0488C101.075 -77.4339 81.0892 -68.6637 64.0522 -58.5941C54.8785 -53.2346 45.7047 -46.2509 39.6435 -37.8054Z" stroke="#167FD2" stroke-width="1.0027" stroke-miterlimit="10" stroke-linecap="round" stroke-linejoin="round"/>
<path d="M39.6435 -37.8054C35.5481 -31.9586 32.927 -25.2997 33.2546 -18.1536C33.7461 -7.92168 39.6435 0.848553 43.7389 10.106C45.3771 13.8415 46.6876 17.7394 47.1791 21.7997C49.4725 42.1011 29.323 57.6927 33.5823 76.6948C35.7119 86.4395 40.7902 91.9615 44.3942 101.869C47.5067 110.639 50.4554 118.11 58.4824 123.957C71.7516 133.539 90.9182 131.752 106.153 136.95C106.972 137.274 107.791 137.599 108.774 137.924C127.286 145.233 132.036 163.098 152.022 169.594C163.161 173.167 174.465 169.432 180.854 163.423C187.243 157.413 190.683 149.78 193.959 140.035C197.891 128.504 199.201 115.836 206.737 106.416C207.556 105.442 208.375 104.467 209.194 103.493C215.91 96.5091 223.446 92.7736 231.145 86.9268C245.234 76.37 260.796 59.9664 272.1 42.2636C278.161 32.6813 284.386 22.4493 285.369 11.0805C286.352 -0.937979 280.127 -13.4437 269.151 -18.1536C259.977 -22.0515 249.657 -20.7522 240.319 -17.1792C224.92 -11.3323 208.866 -2.23727 192.157 -5.81033C189.372 -6.45997 186.587 -7.27203 183.966 -8.73374C167.912 -16.5295 163.817 -36.0189 153.824 -49.6615C145.633 -60.7055 134.166 -70.1254 120.569 -73.0488C101.075 -77.4339 81.0892 -68.6637 64.0522 -58.5941C54.8785 -53.2346 45.7047 -46.2509 39.6435 -37.8054Z" stroke="url(#paint4_linear_3240_6606)" stroke-width="1.0027" stroke-miterlimit="10" stroke-linecap="round" stroke-linejoin="round"/>
<path d="M45.2135 -35.2068C41.2819 -29.6848 38.9884 -23.5132 39.1523 -16.8543C39.3161 -7.43443 44.3944 0.848568 47.9984 9.78121C49.4727 13.3543 50.6194 16.9273 51.1109 20.6628C53.4043 39.5026 36.5312 54.6069 41.7733 71.6601C44.722 81.5672 50.128 86.1147 53.2405 96.8339C55.8616 105.929 57.4998 113.725 65.363 120.221C77.3216 129.966 95.8329 129.479 110.74 133.864C111.559 134.189 112.378 134.351 113.198 134.676C131.217 140.847 137.279 154.652 156.609 160.987C167.257 164.397 177.905 161.961 184.294 157.576C190.683 153.191 194.942 147.182 198.71 138.411C203.297 128.017 204.771 115.674 210.832 106.254C211.488 105.279 212.143 104.305 212.798 103.33C218.204 96.1843 223.938 91.9615 230.49 85.6275C242.285 74.4211 256.701 58.1799 268.005 41.4515C274.557 31.5444 281.601 21.15 282.912 9.29397C284.222 -3.21173 277.342 -16.5295 265.547 -20.9146C256.537 -24.1628 246.872 -22.7011 237.862 -18.9657C223.282 -12.794 208.211 -3.53655 191.993 -6.62238C189.209 -7.10961 186.587 -7.92167 183.966 -9.22096C168.568 -16.3671 163.653 -34.7196 153.66 -47.3877C145.633 -57.6197 134.658 -66.0651 121.716 -68.6637C103.205 -72.5615 84.2019 -64.7658 68.3117 -55.0211C59.4656 -49.9863 50.9471 -43.3274 45.2135 -35.2068Z" stroke="#167FD2" stroke-width="1.0033" stroke-miterlimit="10" stroke-linecap="round" stroke-linejoin="round"/>
<path d="M45.2135 -35.2068C41.2819 -29.6848 38.9884 -23.5132 39.1523 -16.8543C39.3161 -7.43443 44.3944 0.848568 47.9984 9.78121C49.4727 13.3543 50.6194 16.9273 51.1109 20.6628C53.4043 39.5026 36.5312 54.6069 41.7733 71.6601C44.722 81.5672 50.128 86.1147 53.2405 96.8339C55.8616 105.929 57.4998 113.725 65.363 120.221C77.3216 129.966 95.8329 129.479 110.74 133.864C111.559 134.189 112.378 134.351 113.198 134.676C131.217 140.847 137.279 154.652 156.609 160.987C167.257 164.397 177.905 161.961 184.294 157.576C190.683 153.191 194.942 147.182 198.71 138.411C203.297 128.017 204.771 115.674 210.832 106.254C211.488 105.279 212.143 104.305 212.798 103.33C218.204 96.1843 223.938 91.9615 230.49 85.6275C242.285 74.4211 256.701 58.1799 268.005 41.4515C274.557 31.5444 281.601 21.15 282.912 9.29397C284.222 -3.21173 277.342 -16.5295 265.547 -20.9146C256.537 -24.1628 246.872 -22.7011 237.862 -18.9657C223.282 -12.794 208.211 -3.53655 191.993 -6.62238C189.209 -7.10961 186.587 -7.92167 183.966 -9.22096C168.568 -16.3671 163.653 -34.7196 153.66 -47.3877C145.633 -57.6197 134.658 -66.0651 121.716 -68.6637C103.205 -72.5615 84.2019 -64.7658 68.3117 -55.0211C59.4656 -49.9863 50.9471 -43.3274 45.2135 -35.2068Z" stroke="url(#paint5_linear_3240_6606)" stroke-width="1.0033" stroke-miterlimit="10" stroke-linecap="round" stroke-linejoin="round"/>
<path d="M50.7831 -32.6082C47.1791 -27.411 45.0495 -21.7266 44.8857 -15.555C44.7219 -6.78475 48.9811 1.01102 51.9298 9.45643C53.0765 12.7047 54.2233 16.1153 54.7147 19.6884C57.0081 37.0664 43.739 51.6835 49.4726 66.9502C53.4042 77.1821 58.9739 80.7552 61.4312 92.124C63.397 101.544 63.7246 109.664 71.5878 116.811C82.3998 126.88 100.092 127.53 114.672 131.265C115.491 131.428 116.31 131.752 117.129 131.915C134.657 136.95 142.193 146.857 160.704 152.704C170.861 155.952 180.69 154.977 187.243 152.054C193.631 149.131 198.546 144.745 203.133 136.95C208.375 127.692 210.013 115.511 214.436 106.254C214.928 105.279 215.419 104.305 215.911 103.33C220.006 96.0219 224.101 91.3119 229.18 84.6531C238.681 72.6346 252.114 56.8807 263.254 40.9643C270.462 30.7324 278.161 20.1756 279.799 7.66989C281.437 -5.16063 273.902 -19.4529 261.288 -23.3507C252.442 -26.1117 243.268 -24.3252 234.913 -20.4273C221.153 -14.0933 207.064 -4.6734 191.338 -7.10957C188.717 -7.59681 186.096 -8.24646 183.639 -9.38334C168.895 -15.8798 163.161 -32.933 153.005 -44.7891C144.978 -54.0466 134.494 -61.5175 122.371 -63.9537C104.843 -67.3643 86.9866 -60.3806 71.9155 -51.2856C64.0523 -46.5756 56.1891 -40.2416 50.7831 -32.6082Z" stroke="#167FD2" stroke-width="1.004" stroke-miterlimit="10" stroke-linecap="round" stroke-linejoin="round"/>
<path d="M50.7831 -32.6082C47.1791 -27.411 45.0495 -21.7266 44.8857 -15.555C44.7219 -6.78475 48.9811 1.01102 51.9298 9.45643C53.0765 12.7047 54.2233 16.1153 54.7147 19.6884C57.0081 37.0664 43.739 51.6835 49.4726 66.9502C53.4042 77.1821 58.9739 80.7552 61.4312 92.124C63.397 101.544 63.7246 109.664 71.5878 116.811C82.3998 126.88 100.092 127.53 114.672 131.265C115.491 131.428 116.31 131.752 117.129 131.915C134.657 136.95 142.193 146.857 160.704 152.704C170.861 155.952 180.69 154.977 187.243 152.054C193.631 149.131 198.546 144.745 203.133 136.95C208.375 127.692 210.013 115.511 214.436 106.254C214.928 105.279 215.419 104.305 215.911 103.33C220.006 96.0219 224.101 91.3119 229.18 84.6531C238.681 72.6346 252.114 56.8807 263.254 40.9643C270.462 30.7324 278.161 20.1756 279.799 7.66989C281.437 -5.16063 273.902 -19.4529 261.288 -23.3507C252.442 -26.1117 243.268 -24.3252 234.913 -20.4273C221.153 -14.0933 207.064 -4.6734 191.338 -7.10957C188.717 -7.59681 186.096 -8.24646 183.639 -9.38334C168.895 -15.8798 163.161 -32.933 153.005 -44.7891C144.978 -54.0466 134.494 -61.5175 122.371 -63.9537C104.843 -67.3643 86.9866 -60.3806 71.9155 -51.2856C64.0523 -46.5756 56.1891 -40.2416 50.7831 -32.6082Z" stroke="url(#paint6_linear_3240_6606)" stroke-width="1.004" stroke-miterlimit="10" stroke-linecap="round" stroke-linejoin="round"/>
<path d="M56.3528 -30.0098C53.0765 -25.2999 51.1107 -19.9403 50.783 -14.4183C50.4554 -6.29772 53.7317 1.0108 56.189 8.80657C57.1719 11.8924 58.1548 14.9782 58.6462 18.2264C60.9397 34.3052 51.2745 48.1102 57.6633 61.5904C62.5778 71.9847 68.4753 74.7457 70.2772 86.7642C71.7516 96.5089 70.7687 104.954 78.4681 112.912C88.2971 123.144 105.006 125.093 119.095 128.179C119.914 128.342 120.733 128.504 121.388 128.666C138.589 132.564 147.435 138.411 165.127 144.096C174.792 147.181 183.966 147.669 190.355 146.207C196.908 144.908 202.477 142.147 207.556 135.325C213.453 127.367 215.091 115.186 218.204 105.929C218.532 104.954 218.859 103.817 219.187 102.843C221.972 95.5344 224.429 90.1748 228.197 83.1911C235.241 70.523 248.019 54.9315 258.83 39.9896C266.53 29.4329 275.048 18.7137 276.85 5.72075C278.652 -7.59701 270.625 -22.8637 257.356 -26.2744C248.674 -28.5481 240.155 -26.4368 232.128 -22.3765C219.023 -15.7176 206.081 -6.13531 191.01 -8.24666C188.389 -8.57149 185.932 -9.22114 183.639 -10.1956C169.386 -16.0424 162.998 -31.9588 152.677 -42.8404C144.814 -51.2858 134.821 -57.7822 123.19 -59.8936C106.645 -62.9794 89.7714 -56.8078 75.6832 -48.1999C68.6391 -43.3276 61.2673 -37.3184 56.3528 -30.0098Z" stroke="#167FD2" stroke-width="1.0046" stroke-miterlimit="10" stroke-linecap="round" stroke-linejoin="round"/>
<path d="M56.3528 -30.0098C53.0765 -25.2999 51.1107 -19.9403 50.783 -14.4183C50.4554 -6.29772 53.7317 1.0108 56.189 8.80657C57.1719 11.8924 58.1548 14.9782 58.6462 18.2264C60.9397 34.3052 51.2745 48.1102 57.6633 61.5904C62.5778 71.9847 68.4753 74.7457 70.2772 86.7642C71.7516 96.5089 70.7687 104.954 78.4681 112.912C88.2971 123.144 105.006 125.093 119.095 128.179C119.914 128.342 120.733 128.504 121.388 128.666C138.589 132.564 147.435 138.411 165.127 144.096C174.792 147.181 183.966 147.669 190.355 146.207C196.908 144.908 202.477 142.147 207.556 135.325C213.453 127.367 215.091 115.186 218.204 105.929C218.532 104.954 218.859 103.817 219.187 102.843C221.972 95.5344 224.429 90.1748 228.197 83.1911C235.241 70.523 248.019 54.9315 258.83 39.9896C266.53 29.4329 275.048 18.7137 276.85 5.72075C278.652 -7.59701 270.625 -22.8637 257.356 -26.2744C248.674 -28.5481 240.155 -26.4368 232.128 -22.3765C219.023 -15.7176 206.081 -6.13531 191.01 -8.24666C188.389 -8.57149 185.932 -9.22114 183.639 -10.1956C169.386 -16.0424 162.998 -31.9588 152.677 -42.8404C144.814 -51.2858 134.821 -57.7822 123.19 -59.8936C106.645 -62.9794 89.7714 -56.8078 75.6832 -48.1999C68.6391 -43.3276 61.2673 -37.3184 56.3528 -30.0098Z" stroke="url(#paint7_linear_3240_6606)" stroke-width="1.0046" stroke-miterlimit="10" stroke-linecap="round" stroke-linejoin="round"/>
<path d="M61.9228 -27.4112C58.9741 -23.0261 57.1721 -18.3161 56.6806 -13.1189C56.0253 -5.81042 58.4826 1.17329 60.4484 8.48182C61.2675 11.2428 62.0866 14.1662 62.578 17.0896C65.0353 31.7067 58.9741 44.8621 65.8544 56.7181C71.9156 67.2749 77.813 69.2238 79.1235 82.0543C80.1064 92.1239 77.9768 100.894 85.1848 109.502C93.867 119.896 109.757 123.307 123.518 125.418C124.337 125.581 124.992 125.743 125.811 125.743C142.521 128.342 152.677 130.291 169.878 135.813C179.052 138.736 187.406 140.523 193.959 140.685C200.512 140.847 206.901 139.711 212.47 134.026C219.187 127.205 220.825 115.349 222.463 106.091C222.627 105.117 222.791 103.98 222.955 103.005C224.265 95.5345 225.084 89.5253 227.705 82.3792C232.456 68.899 244.251 53.7947 254.899 39.6649C263.09 28.7833 272.427 17.9017 274.557 4.42152C276.687 -9.38348 268.004 -25.6246 253.916 -28.5481C245.561 -30.3346 237.371 -27.8984 229.999 -23.6757C217.713 -16.8544 205.754 -6.9473 191.174 -8.57142C188.717 -8.89624 186.26 -9.38347 183.966 -10.3579C170.37 -15.5551 163.162 -30.1722 152.841 -40.2417C145.142 -47.7126 135.477 -53.3971 124.665 -55.1836C109.266 -57.6198 93.3756 -52.2602 80.2702 -44.302C73.2261 -39.9169 66.5096 -34.2325 61.9228 -27.4112Z" stroke="#167FD2" stroke-width="1.0053" stroke-miterlimit="10" stroke-linecap="round" stroke-linejoin="round"/>
<path d="M61.9228 -27.4112C58.9741 -23.0261 57.1721 -18.3161 56.6806 -13.1189C56.0253 -5.81042 58.4826 1.17329 60.4484 8.48182C61.2675 11.2428 62.0866 14.1662 62.578 17.0896C65.0353 31.7067 58.9741 44.8621 65.8544 56.7181C71.9156 67.2749 77.813 69.2238 79.1235 82.0543C80.1064 92.1239 77.9768 100.894 85.1848 109.502C93.867 119.896 109.757 123.307 123.518 125.418C124.337 125.581 124.992 125.743 125.811 125.743C142.521 128.342 152.677 130.291 169.878 135.813C179.052 138.736 187.406 140.523 193.959 140.685C200.512 140.847 206.901 139.711 212.47 134.026C219.187 127.205 220.825 115.349 222.463 106.091C222.627 105.117 222.791 103.98 222.955 103.005C224.265 95.5345 225.084 89.5253 227.705 82.3792C232.456 68.899 244.251 53.7947 254.899 39.6649C263.09 28.7833 272.427 17.9017 274.557 4.42152C276.687 -9.38348 268.004 -25.6246 253.916 -28.5481C245.561 -30.3346 237.371 -27.8984 229.999 -23.6757C217.713 -16.8544 205.754 -6.9473 191.174 -8.57142C188.717 -8.89624 186.26 -9.38347 183.966 -10.3579C170.37 -15.5551 163.162 -30.1722 152.841 -40.2417C145.142 -47.7126 135.477 -53.3971 124.665 -55.1836C109.266 -57.6198 93.3756 -52.2602 80.2702 -44.302C73.2261 -39.9169 66.5096 -34.2325 61.9228 -27.4112Z" stroke="url(#paint8_linear_3240_6606)" stroke-width="1.0053" stroke-miterlimit="10" stroke-linecap="round" stroke-linejoin="round"/>
<path d="M67.6562 -24.8125C65.0351 -20.7522 63.397 -16.5295 62.7417 -11.8196C61.9226 -5.16068 63.3969 1.33579 64.8713 7.99467C65.5266 10.5933 66.1818 13.1918 66.6733 15.9528C69.1305 29.1082 67.0009 41.4515 74.2089 51.6834C81.5806 62.2402 87.478 63.3771 88.1333 77.0197C88.6248 87.414 85.1846 96.3466 92.2287 105.767C99.9281 116.323 114.835 121.033 128.105 122.495C128.924 122.657 129.579 122.657 130.398 122.657C146.616 124.119 158.247 122.17 174.629 127.205C183.311 129.966 191.01 133.214 197.563 134.838C204.116 136.462 211.324 137.112 217.385 132.24C224.757 126.555 226.395 114.862 226.722 105.767C226.722 104.792 226.722 103.655 226.722 102.681C226.722 95.0473 225.739 88.5509 227.05 81.0799C229.507 66.9501 240.319 52.1707 250.967 38.8529C259.813 27.6465 269.806 16.6025 272.263 2.63509C274.721 -11.6571 265.383 -28.8728 250.64 -31.1466C242.449 -32.4458 234.913 -29.6848 227.869 -25.2997C216.402 -18.1536 205.262 -8.08409 191.338 -9.22097C189.044 -9.38338 186.587 -9.87062 184.458 -10.6827C171.516 -15.2302 163.489 -28.7104 153.005 -37.8054C145.469 -44.4643 136.132 -49.1743 126.139 -50.636C111.559 -52.7473 96.8156 -48.3622 84.6931 -40.8913C77.8128 -36.6685 71.7516 -31.309 67.6562 -24.8125Z" stroke="#167FD2" stroke-width="1.0059" stroke-miterlimit="10" stroke-linecap="round" stroke-linejoin="round"/>
<path d="M67.6562 -24.8125C65.0351 -20.7522 63.397 -16.5295 62.7417 -11.8196C61.9226 -5.16068 63.3969 1.33579 64.8713 7.99467C65.5266 10.5933 66.1818 13.1918 66.6733 15.9528C69.1305 29.1082 67.0009 41.4515 74.2089 51.6834C81.5806 62.2402 87.478 63.3771 88.1333 77.0197C88.6248 87.414 85.1846 96.3466 92.2287 105.767C99.9281 116.323 114.835 121.033 128.105 122.495C128.924 122.657 129.579 122.657 130.398 122.657C146.616 124.119 158.247 122.17 174.629 127.205C183.311 129.966 191.01 133.214 197.563 134.838C204.116 136.462 211.324 137.112 217.385 132.24C224.757 126.555 226.395 114.862 226.722 105.767C226.722 104.792 226.722 103.655 226.722 102.681C226.722 95.0473 225.739 88.5509 227.05 81.0799C229.507 66.9501 240.319 52.1707 250.967 38.8529C259.813 27.6465 269.806 16.6025 272.263 2.63509C274.721 -11.6571 265.383 -28.8728 250.64 -31.1466C242.449 -32.4458 234.913 -29.6848 227.869 -25.2997C216.402 -18.1536 205.262 -8.08409 191.338 -9.22097C189.044 -9.38338 186.587 -9.87062 184.458 -10.6827C171.516 -15.2302 163.489 -28.7104 153.005 -37.8054C145.469 -44.4643 136.132 -49.1743 126.139 -50.636C111.559 -52.7473 96.8156 -48.3622 84.6931 -40.8913C77.8128 -36.6685 71.7516 -31.309 67.6562 -24.8125Z" stroke="url(#paint9_linear_3240_6606)" stroke-width="1.0059" stroke-miterlimit="10" stroke-linecap="round" stroke-linejoin="round"/>
<path d="M73.226 -22.2141C70.9325 -18.641 69.4582 -14.7431 68.6391 -10.5204C67.4924 -4.5112 68.1476 1.49803 69.1305 7.66967C69.622 10.1058 70.1134 12.3796 70.6049 14.8158C73.0621 26.6718 74.7003 37.8782 82.3997 46.8109C91.2458 57.0428 96.9794 57.8549 96.8156 72.1471C96.8156 82.8663 92.3925 91.9614 98.9452 102.356C105.826 113.075 119.586 119.084 132.528 119.896C133.183 119.896 134.002 119.896 134.657 120.059C150.384 120.383 163.489 114.374 179.052 119.247C187.243 121.845 194.123 126.393 200.676 129.641C207.228 132.889 215.255 135 221.808 131.265C229.835 126.717 231.473 115.186 230.49 106.091C230.326 105.117 230.163 103.98 229.999 103.005C228.688 95.2096 226.067 88.2259 226.067 80.4301C226.067 65.4882 236.224 51.0336 246.544 38.6903C255.882 27.3215 266.694 15.9527 269.479 1.33562C272.1 -13.2814 262.434 -31.634 246.708 -33.4205C238.681 -34.2326 231.637 -31.1467 225.248 -26.5992C214.436 -19.1283 204.443 -8.89632 191.01 -9.54597C188.717 -9.70838 186.587 -10.0332 184.458 -10.6829C172.008 -14.5807 163.325 -26.924 152.841 -35.0446C145.469 -40.729 136.623 -44.6269 127.286 -45.7638C113.361 -47.5503 99.6005 -43.9773 88.4609 -37.156C82.3997 -33.2581 76.9938 -28.2233 73.226 -22.2141Z" stroke="#167FD2" stroke-width="1.0066" stroke-miterlimit="10" stroke-linecap="round" stroke-linejoin="round"/>
<path d="M73.226 -22.2141C70.9325 -18.641 69.4582 -14.7431 68.6391 -10.5204C67.4924 -4.5112 68.1476 1.49803 69.1305 7.66967C69.622 10.1058 70.1134 12.3796 70.6049 14.8158C73.0621 26.6718 74.7003 37.8782 82.3997 46.8109C91.2458 57.0428 96.9794 57.8549 96.8156 72.1471C96.8156 82.8663 92.3925 91.9614 98.9452 102.356C105.826 113.075 119.586 119.084 132.528 119.896C133.183 119.896 134.002 119.896 134.657 120.059C150.384 120.383 163.489 114.374 179.052 119.247C187.243 121.845 194.123 126.393 200.676 129.641C207.228 132.889 215.255 135 221.808 131.265C229.835 126.717 231.473 115.186 230.49 106.091C230.326 105.117 230.163 103.98 229.999 103.005C228.688 95.2096 226.067 88.2259 226.067 80.4301C226.067 65.4882 236.224 51.0336 246.544 38.6903C255.882 27.3215 266.694 15.9527 269.479 1.33562C272.1 -13.2814 262.434 -31.634 246.708 -33.4205C238.681 -34.2326 231.637 -31.1467 225.248 -26.5992C214.436 -19.1283 204.443 -8.89632 191.01 -9.54597C188.717 -9.70838 186.587 -10.0332 184.458 -10.6829C172.008 -14.5807 163.325 -26.924 152.841 -35.0446C145.469 -40.729 136.623 -44.6269 127.286 -45.7638C113.361 -47.5503 99.6005 -43.9773 88.4609 -37.156C82.3997 -33.2581 76.9938 -28.2233 73.226 -22.2141Z" stroke="url(#paint10_linear_3240_6606)" stroke-width="1.0066" stroke-miterlimit="10" stroke-linecap="round" stroke-linejoin="round"/>
<path d="M73.226 7.1826C74.5365 19.8507 80.5978 32.5188 90.263 41.7763C100.583 51.6834 106.153 52.1706 105.334 67.1125C104.843 78.1565 99.2729 87.414 105.498 98.6204C111.559 109.502 124.173 116.973 136.623 116.973C152.677 116.973 167.748 105.767 183.311 110.639C191.01 113.075 197.235 119.084 203.788 123.794C210.341 128.504 219.023 132.402 226.395 129.479C235.077 126.068 236.715 114.862 234.258 105.767C231.801 96.6715 226.395 88.3885 224.92 79.131C222.463 63.5395 231.801 49.4096 241.957 37.8784C251.95 26.1848 263.581 14.6535 266.53 -0.450748C269.479 -15.555 259.158 -35.2069 242.613 -36.0189C221.808 -37.1558 211.16 -9.87063 190.519 -10.1955C175.612 -10.3579 164.8 -24.3253 152.186 -32.7707C128.268 -48.8494 92.2288 -42.353 78.632 -19.6153C74.0451 -11.4947 72.2431 -2.23728 73.226 7.1826Z" stroke="#167FD2" stroke-width="1.0073" stroke-miterlimit="10" stroke-linecap="round" stroke-linejoin="round"/>
<path d="M73.226 7.1826C74.5365 19.8507 80.5978 32.5188 90.263 41.7763C100.583 51.6834 106.153 52.1706 105.334 67.1125C104.843 78.1565 99.2729 87.414 105.498 98.6204C111.559 109.502 124.173 116.973 136.623 116.973C152.677 116.973 167.748 105.767 183.311 110.639C191.01 113.075 197.235 119.084 203.788 123.794C210.341 128.504 219.023 132.402 226.395 129.479C235.077 126.068 236.715 114.862 234.258 105.767C231.801 96.6715 226.395 88.3885 224.92 79.131C222.463 63.5395 231.801 49.4096 241.957 37.8784C251.95 26.1848 263.581 14.6535 266.53 -0.450748C269.479 -15.555 259.158 -35.2069 242.613 -36.0189C221.808 -37.1558 211.16 -9.87063 190.519 -10.1955C175.612 -10.3579 164.8 -24.3253 152.186 -32.7707C128.268 -48.8494 92.2288 -42.353 78.632 -19.6153C74.0451 -11.4947 72.2431 -2.23728 73.226 7.1826Z" stroke="url(#paint11_linear_3240_6606)" stroke-width="1.0073" stroke-miterlimit="10" stroke-linecap="round" stroke-linejoin="round"/>
</g>
<defs>
<linearGradient id="paint0_linear_3240_6606" x1="6.76422" y1="-23.3845" x2="320.868" y2="122.975" gradientUnits="userSpaceOnUse">
<stop stop-color="#4BC7AC"/>
<stop offset="1" stop-color="#3F78C7"/>
</linearGradient>
<linearGradient id="paint1_linear_3240_6606" x1="14.817" y1="-21.7742" x2="316.633" y2="119.982" gradientUnits="userSpaceOnUse">
<stop stop-color="#4BC7AC"/>
<stop offset="1" stop-color="#3F78C7"/>
</linearGradient>
<linearGradient id="paint2_linear_3240_6606" x1="22.6975" y1="-20.1676" x2="312.201" y2="116.836" gradientUnits="userSpaceOnUse">
<stop stop-color="#4BC7AC"/>
<stop offset="1" stop-color="#3F78C7"/>
</linearGradient>
<linearGradient id="paint3_linear_3240_6606" x1="30.4775" y1="-18.4995" x2="307.958" y2="114.122" gradientUnits="userSpaceOnUse">
<stop stop-color="#4BC7AC"/>
<stop offset="1" stop-color="#3F78C7"/>
</linearGradient>
<linearGradient id="paint4_linear_3240_6606" x1="38.1417" y1="-16.6611" x2="303.168" y2="111.365" gradientUnits="userSpaceOnUse">
<stop stop-color="#4BC7AC"/>
<stop offset="1" stop-color="#3F78C7"/>
</linearGradient>
<linearGradient id="paint5_linear_3240_6606" x1="44.1221" y1="-15.1736" x2="298.243" y2="110.019" gradientUnits="userSpaceOnUse">
<stop stop-color="#4BC7AC"/>
<stop offset="1" stop-color="#3F78C7"/>
</linearGradient>
<linearGradient id="paint6_linear_3240_6606" x1="49.6799" y1="-13.3029" x2="292.748" y2="108.816" gradientUnits="userSpaceOnUse">
<stop stop-color="#4BC7AC"/>
<stop offset="1" stop-color="#3F78C7"/>
</linearGradient>
<linearGradient id="paint7_linear_3240_6606" x1="55.3795" y1="-11.9546" x2="287.691" y2="106.813" gradientUnits="userSpaceOnUse">
<stop stop-color="#4BC7AC"/>
<stop offset="1" stop-color="#3F78C7"/>
</linearGradient>
<linearGradient id="paint8_linear_3240_6606" x1="61.0277" y1="-9.6645" x2="283.269" y2="106.18" gradientUnits="userSpaceOnUse">
<stop stop-color="#4BC7AC"/>
<stop offset="1" stop-color="#3F78C7"/>
</linearGradient>
<linearGradient id="paint9_linear_3240_6606" x1="66.7958" y1="-7.23197" x2="279.787" y2="104.939" gradientUnits="userSpaceOnUse">
<stop stop-color="#4BC7AC"/>
<stop offset="1" stop-color="#3F78C7"/>
</linearGradient>
<linearGradient id="paint10_linear_3240_6606" x1="72.1514" y1="-4.10022" x2="276.58" y2="103.776" gradientUnits="userSpaceOnUse">
<stop stop-color="#4BC7AC"/>
<stop offset="1" stop-color="#3F78C7"/>
</linearGradient>
<linearGradient id="paint11_linear_3240_6606" x1="76.9263" y1="-1.26517" x2="273.263" y2="102.564" gradientUnits="userSpaceOnUse">
<stop stop-color="#4BC7AC"/>
<stop offset="1" stop-color="#3F78C7"/>
</linearGradient>
<clipPath id="clip0_3240_6606">
<rect width="234" height="205" fill="white"/>
</clipPath>
</defs>
</svg>
