<svg width="48" height="18" viewBox="0 0 48 18" fill="none" xmlns="http://www.w3.org/2000/svg">
<mask id="mask0_4809_10746" style="mask-type:alpha" maskUnits="userSpaceOnUse" x="0" y="7" width="23" height="11">
<path d="M22.4993 7.74295H0V18H22.4993V7.74295Z" fill="white"/>
</mask>
<g mask="url(#mask0_4809_10746)">
<mask id="mask1_4809_10746" style="mask-type:alpha" maskUnits="userSpaceOnUse" x="-804" y="-296" width="905" height="428">
<path d="M100.71 -295.895H-803.015V131.984H100.71V-295.895Z" fill="white"/>
</mask>
<g mask="url(#mask1_4809_10746)">
<mask id="mask2_4809_10746" style="mask-type:alpha" maskUnits="userSpaceOnUse" x="-1" y="7" width="25" height="12">
<path d="M23.033 7.29044H-0.00195312V18.3519H23.033V7.29044Z" fill="white"/>
</mask>
<g mask="url(#mask2_4809_10746)">
<mask id="mask3_4809_10746" style="mask-type:alpha" maskUnits="userSpaceOnUse" x="0" y="7" width="23" height="11">
<path fill-rule="evenodd" clip-rule="evenodd" d="M1.1733 11.7653C1.11974 12.067 1.1733 12.7206 1.33402 13.0726C1.60187 13.676 2.13756 13.9776 2.83397 13.9776C3.63752 13.9776 4.22678 13.7262 4.60177 13.4748L4.76248 14.3798C4.28036 14.6816 3.47681 14.9329 2.56612 14.9329C0.798314 14.9329 0.0483398 13.676 0.0483398 12.1676C0.0483398 10.0558 1.54829 7.74298 3.69109 7.74298C4.97676 7.74298 5.67316 8.54742 5.67316 9.50277C5.56602 11.3128 3.63752 11.8156 1.1733 11.7653ZM3.47488 8.64799C2.40349 8.64799 1.59994 9.75415 1.27852 10.8603C3.04633 10.8603 4.49271 10.6089 4.49271 9.553C4.49271 8.94966 4.06415 8.64799 3.47488 8.64799ZM11.2453 11.6145C11.031 12.8213 10.9238 14.0279 10.9774 14.8324H9.90599C9.90599 14.4302 9.95959 13.7765 10.0667 13.0223H10.0131C9.26318 14.4302 8.35247 14.9832 7.44177 14.9832C6.26323 14.9832 5.51328 14.0279 5.51328 12.6704C5.51328 10.257 7.22754 7.74298 10.1203 7.74298C10.7631 7.74298 11.4595 7.84356 11.8881 7.99436L11.2453 11.6145ZM9.85376 8.64799C8.13955 8.64799 6.74673 10.5084 6.69313 12.419C6.69313 13.1732 6.96102 13.9274 7.81812 13.9274C8.78236 13.9274 9.90736 12.6201 10.2287 10.81L10.6038 8.69828C10.4966 8.69828 10.2287 8.64799 9.85376 8.64799ZM16.1196 8.94966C15.9054 8.7988 15.4768 8.64799 14.9411 8.64799C14.2447 8.64799 13.7626 9.10047 13.7626 9.70386C13.7626 10.2066 14.084 10.5083 14.6733 10.8603C15.4232 11.3128 15.9054 11.9161 15.9054 12.6703C15.9054 14.1285 14.7804 14.9329 13.334 14.9329C12.6376 14.9329 11.9948 14.6815 11.6733 14.4804L11.9948 13.6256C12.3161 13.8268 12.9054 14.0782 13.4411 14.0782C14.1911 14.0782 14.7268 13.5754 14.7268 12.972C14.7268 12.419 14.5125 12.1173 13.8161 11.715C13.0662 11.2625 12.6376 10.6592 12.6376 9.95525C12.6376 8.74851 13.6554 7.79321 15.0483 7.79321C15.6375 7.79321 16.1732 7.94408 16.441 8.14517L16.1196 8.94966ZM20.0284 13.1229C19.332 14.6313 18.6356 15.838 17.7249 16.743C16.9749 17.5475 16.1714 17.8492 15.7964 17.9497L15.5285 16.9441C15.7964 16.8435 16.2785 16.6424 16.7606 16.2905C17.1892 15.9385 17.6713 15.3855 18.0463 14.6816C18.0999 14.581 18.0999 14.4804 18.0999 14.3799L16.7606 7.89379H17.9392L18.582 11.6145C18.7427 12.4189 18.7963 12.9218 18.9034 13.4245H18.957C19.1177 12.9721 19.332 12.5195 19.6534 11.715L21.3676 7.8435H22.4926L20.0284 13.1229Z" fill="white"/>
</mask>
<g mask="url(#mask3_4809_10746)">
<mask id="mask4_4809_10746" style="mask-type:alpha" maskUnits="userSpaceOnUse" x="-1" y="7" width="25" height="12">
<path d="M23.033 7.2905H-0.00195312V18.352H23.033V7.2905Z" fill="white"/>
</mask>
<g mask="url(#mask4_4809_10746)">
<path d="M25.1732 5.22903H-2.68311V20.514H25.1732V5.22903Z" fill="#252525"/>
</g>
</g>
</g>
</g>
</g>
<mask id="mask5_4809_10746" style="mask-type:alpha" maskUnits="userSpaceOnUse" x="17" y="4" width="16" height="13">
<path fill-rule="evenodd" clip-rule="evenodd" d="M19.8776 16.2905C19.8776 16.2905 22.8776 11.6648 23.4132 9.50282C23.949 7.34079 24.0025 6.18434 21.9133 5.98324C19.7705 5.78209 17.3599 5.98324 17.3599 5.98324C17.3599 5.98324 20.7348 3.97205 25.181 4.12289C29.681 4.22345 32.2523 5.98324 32.2523 5.98324C32.2523 5.98324 31.288 6.3352 29.7345 6.43572C28.181 6.58658 27.5917 6.88825 27.6989 8.54747C27.806 10.2067 28.4488 11.3631 28.4488 11.3631C28.4488 11.3631 25.9311 9.80449 24.3775 11.3631C22.824 12.9218 22.5026 13.6257 21.5919 14.6313C20.7348 15.6369 19.8776 16.2905 19.8776 16.2905Z" fill="white"/>
</mask>
<g mask="url(#mask5_4809_10746)">
<mask id="mask6_4809_10746" style="mask-type:alpha" maskUnits="userSpaceOnUse" x="-804" y="-296" width="905" height="428">
<path d="M100.716 -295.895H-803.009V131.984H100.716V-295.895Z" fill="white"/>
</mask>
<g mask="url(#mask6_4809_10746)">
<path d="M34.9841 1.55887H14.6812V18.8047H34.9841V1.55887Z" fill="#136BB5"/>
</g>
</g>
<mask id="mask7_4809_10746" style="mask-type:alpha" maskUnits="userSpaceOnUse" x="23" y="0" width="4" height="4">
<path fill-rule="evenodd" clip-rule="evenodd" d="M25.0138 0C26.0851 0 26.9422 0.804474 26.9422 1.81007C26.9422 2.81566 26.0851 3.62013 25.0138 3.62013C23.9424 3.62013 23.0852 2.81566 23.0852 1.81007C23.0852 0.804474 23.9959 0 25.0138 0Z" fill="white"/>
</mask>
<g mask="url(#mask7_4809_10746)">
<mask id="mask8_4809_10746" style="mask-type:alpha" maskUnits="userSpaceOnUse" x="-804" y="-296" width="905" height="428">
<path d="M100.711 -295.895H-803.015V131.984H100.711V-295.895Z" fill="white"/>
</mask>
<g mask="url(#mask8_4809_10746)">
<path d="M29.6185 -2.51407H20.4045V6.13401H29.6185V-2.51407Z" fill="#F8A81B"/>
</g>
</g>
<mask id="mask9_4809_10746" style="mask-type:alpha" maskUnits="userSpaceOnUse" x="28" y="7" width="20" height="11">
<path d="M47.9996 7.74295H28.3931V18H47.9996V7.74295Z" fill="white"/>
</mask>
<g mask="url(#mask9_4809_10746)">
<mask id="mask10_4809_10746" style="mask-type:alpha" maskUnits="userSpaceOnUse" x="-804" y="-296" width="905" height="428">
<path d="M100.716 -295.895H-803.009V131.984H100.716V-295.895Z" fill="white"/>
</mask>
<g mask="url(#mask10_4809_10746)">
<mask id="mask11_4809_10746" style="mask-type:alpha" maskUnits="userSpaceOnUse" x="28" y="7" width="21" height="12">
<path d="M48.2139 7.29044H28.3931V18.3519H48.2139V7.29044Z" fill="white"/>
</mask>
<g mask="url(#mask11_4809_10746)">
<mask id="mask12_4809_10746" style="mask-type:alpha" maskUnits="userSpaceOnUse" x="28" y="7" width="21" height="11">
<path fill-rule="evenodd" clip-rule="evenodd" d="M31.5566 14.933C30.8602 14.933 30.3781 14.7821 30.1103 14.6313H30.0567L29.521 17.5978H28.396L29.7352 10.3073C29.896 9.45254 30.0031 8.54747 30.1103 7.84356H31.128L30.9138 9.15087H30.9674C31.5566 8.2458 32.4673 7.69275 33.3244 7.69275C34.7708 7.69275 35.3601 8.89943 35.3601 10.2067C35.4137 12.6704 33.753 14.933 31.5566 14.933ZM32.9495 8.69833C32.0388 8.69833 30.9138 9.75421 30.5924 11.7151L30.271 13.6257C30.5388 13.8771 31.021 14.028 31.5567 14.028C33.0031 14.028 34.2352 12.1173 34.2352 10.3073C34.2352 9.55311 33.9138 8.69833 32.9495 8.69833ZM41.253 11.6146C41.0387 12.8213 40.9315 14.028 40.9851 14.8325H39.9137C39.9137 14.4302 39.9673 13.7766 40.0744 13.0224H40.0208C39.2709 14.4302 38.4138 14.9833 37.4495 14.9833C36.271 14.9833 35.521 14.028 35.521 12.6704C35.521 10.257 37.2352 7.74304 40.128 7.74304C40.7709 7.74304 41.4673 7.84361 41.8958 7.99442L41.253 11.6146ZM39.8582 8.64805C38.144 8.64805 36.7512 10.5084 36.7512 12.4191C36.7512 13.1732 37.019 13.9274 37.8762 13.9274C38.8404 13.9274 39.9654 12.6202 40.2868 10.8101L40.6618 8.69833C40.5011 8.69833 40.2332 8.64805 39.8582 8.64805ZM45.5384 13.123C44.842 14.6313 44.1456 15.8381 43.2349 16.7431C42.4849 17.5476 41.6814 17.8492 41.3064 17.9498L41.0385 16.9442C41.3063 16.8436 41.7885 16.6425 42.2707 16.2905C42.6992 15.9386 43.1813 15.3855 43.5563 14.6816C43.6099 14.581 43.6099 14.4805 43.6099 14.3799L42.2707 7.8939H43.4492L44.092 11.6146C44.2527 12.4191 44.3063 12.9218 44.4134 13.4246H44.467C44.6277 12.9721 44.842 12.5196 45.1634 11.7151L46.8241 7.84361H48.0026L45.5384 13.123Z" fill="white"/>
</mask>
<g mask="url(#mask12_4809_10746)">
<mask id="mask13_4809_10746" style="mask-type:alpha" maskUnits="userSpaceOnUse" x="28" y="7" width="21" height="12">
<path d="M48.2168 7.29053H28.396V18.352H48.2168V7.29053Z" fill="white"/>
</mask>
<g mask="url(#mask13_4809_10746)">
<path d="M50.6784 5.22894H25.7148V20.5139H50.6784V5.22894Z" fill="#252525"/>
</g>
</g>
</g>
</g>
</g>
</svg>
