<svg width="59" height="18" viewBox="0 0 59 18" fill="none" xmlns="http://www.w3.org/2000/svg">
<path d="M0.0764452 4.14819H2.97341V13.6748H0.0764452V4.14819ZM3.07054 1.5C3.07054 2.31798 2.46032 2.98056 1.50593 2.98056C0.591649 2.98056 -0.0185718 2.31798 0.000431573 1.5C-0.0185718 0.643164 0.591649 0 1.52493 0C2.45821 0 3.04942 0.643164 3.07054 1.5Z" fill="#E84F35"/>
<path d="M34.707 12.0905C34.707 11.0351 35.4144 10.2711 36.4301 10.2711C37.4456 10.2711 38.1339 11.0157 38.1339 12.0905C38.1339 13.1286 37.4435 13.8905 36.4111 13.8905C35.4144 13.8905 34.707 13.1286 34.707 12.0905Z" fill="#E84F35"/>
<path d="M8.15283 6.64957C8.40199 6.70785 8.70815 6.72943 9.12835 6.72943C10.6803 6.72943 11.6368 5.92655 11.6368 4.57762C11.6368 3.36468 10.8133 2.64166 9.3585 2.64166C8.76516 2.64166 8.36397 2.69993 8.15283 2.75821V6.64957ZM5.26221 0.662528C6.16169 0.504974 7.42647 0.388428 9.20647 0.388428C11.0055 0.388428 12.2892 0.740225 13.1507 1.44598C13.9742 2.11072 14.5295 3.20713 14.5295 4.49992C14.5295 5.79058 14.1072 6.88698 13.3429 7.63159C12.3462 8.58986 10.8745 9.0215 9.14944 9.0215C8.76726 9.0215 8.421 9.00208 8.15283 8.96322V13.679H5.26221V0.662528Z" fill="#7B9AA9"/>
<path d="M20.9232 9.15531C19.3924 9.13587 18.2058 9.50709 18.2058 10.6618C18.2058 11.4236 18.7041 11.797 19.3544 11.797C20.0808 11.797 20.6762 11.3092 20.8663 10.7028C20.9044 10.5474 20.9232 10.3704 20.9232 10.1934V9.15531ZM21.2673 13.6747L21.0942 12.7164H21.0374C20.425 13.4805 19.4663 13.8905 18.3578 13.8905C16.4617 13.8905 15.332 12.4833 15.332 10.9553C15.332 8.47112 17.5153 7.2776 20.8262 7.29702V7.16105C20.8262 6.65171 20.558 5.92869 19.1222 5.92869C18.1657 5.92869 17.15 6.26106 16.5377 6.65386L16.0014 4.73732C16.6517 4.36393 17.9355 3.8956 19.6395 3.8956C22.7602 3.8956 23.7548 5.77545 23.7548 8.02437V11.3524C23.7548 12.2718 23.7927 13.1524 23.8878 13.6812H21.2673V13.6747Z" fill="#7B9AA9"/>
<path d="M28.0072 4.10718L29.4051 8.80356C29.5571 9.37119 29.7493 10.0748 29.8632 10.5841H29.9203C30.0533 10.0748 30.2074 9.35178 30.3404 8.80356L31.4891 4.10718H34.6099L32.4287 10.4072C31.0879 14.2035 30.1884 15.7295 29.1348 16.6877C28.1214 17.5877 27.0486 17.9007 26.3202 18L25.708 15.4769C26.0709 15.4187 26.5313 15.2417 26.9706 14.9676C27.4097 14.7323 27.8889 14.264 28.1762 13.7741C28.2711 13.6381 28.3282 13.4805 28.3282 13.3446C28.3282 13.2474 28.3092 13.0899 28.193 12.8546L24.7661 4.10718H28.0072Z" fill="#7B9AA9"/>
<path d="M48.7205 10.6036C48.7205 11.8554 48.7586 12.8741 48.7964 13.6748H46.269L46.136 12.3259H46.079C45.7158 12.9129 44.8353 13.8906 43.1483 13.8906C41.2542 13.8906 39.8564 12.6777 39.8564 9.723V4.10718H42.7851V9.25464C42.7851 10.6446 43.2264 11.4841 44.2399 11.4841C45.0444 11.4841 45.5026 10.9165 45.6947 10.4482C45.7708 10.2712 45.7896 10.0381 45.7896 9.80283V4.10718H48.7183V10.6036H48.7205Z" fill="#7B9AA9"/>
<path d="M56.0338 9.15531C54.5008 9.13587 53.3142 9.50709 53.3142 10.6618C53.3142 11.4236 53.8125 11.797 54.4627 11.797C55.1914 11.797 55.7845 11.3092 55.9746 10.7028C56.0127 10.5474 56.0338 10.3704 56.0338 10.1934V9.15531ZM56.38 13.6747L56.2069 12.7164H56.15C55.5376 13.4805 54.581 13.8905 53.4704 13.8905C51.5742 13.8905 50.4468 12.4833 50.4468 10.9553C50.4468 8.47112 52.628 7.2776 55.9409 7.29702V7.16105C55.9409 6.65171 55.6726 5.92869 54.2368 5.92869C53.2805 5.92869 52.2648 6.26106 51.6524 6.65386L51.1161 4.73732C51.7665 4.36393 53.0503 3.8956 54.7521 3.8956C57.8728 3.8956 58.8675 5.77545 58.8675 8.02437V11.3524C58.8675 12.2718 58.9053 13.1524 59.0005 13.6812H56.38V13.6747Z" fill="#7B9AA9"/>
</svg>
