<svg width="29" height="18" viewBox="0 0 29 18" fill="none" xmlns="http://www.w3.org/2000/svg">
<path fill-rule="evenodd" clip-rule="evenodd" d="M10.5786 16.0758H18.421V1.92438H10.5786V16.0758Z" fill="#FF5F00"/>
<path fill-rule="evenodd" clip-rule="evenodd" d="M11.0769 9C11.0769 6.12934 12.4156 3.57189 14.5 1.9243C12.9222 0.674951 10.9708 -0.0030675 8.96153 1.04334e-05C4.01182 1.04334e-05 0 4.02975 0 9C0 13.9707 4.01182 18 8.96153 18C11.0523 18 12.9756 17.2812 14.5 16.0757C12.4156 14.4277 11.0769 11.8711 11.0769 9.00045" fill="#EB001B"/>
<path fill-rule="evenodd" clip-rule="evenodd" d="M29 9C29 13.9707 24.9877 18 20.0385 18C18.0292 18.0031 16.0777 17.3251 14.5 16.0757C16.5844 14.4281 17.9231 11.8711 17.9231 9C17.9231 6.12934 16.5844 3.57234 14.5 1.9243C16.0777 0.674888 18.0292 -0.00313761 20.0385 1.09162e-05C24.9877 1.09162e-05 29 4.0293 29 9Z" fill="#F79E1B"/>
</svg>
