<svg width="616" height="370" viewBox="0 0 616 370" fill="none" xmlns="http://www.w3.org/2000/svg">
<path d="M368.523 185C368.523 286.685 286.092 369.103 184.41 369.103C82.7281 369.103 0.307617 286.681 0.307617 185C0.307617 83.3252 82.7302 0.897461 184.41 0.897461C286.089 0.897461 368.523 83.3282 368.523 185Z" fill="#D9222A"/>
<path d="M431.579 0.893311C384.01 0.893311 340.664 18.9405 307.99 48.5507C301.333 54.5907 295.12 61.1015 289.4 68.0338H326.596C331.689 74.2256 336.376 80.7395 340.632 87.5343H275.365C271.44 93.8123 267.898 100.323 264.759 107.03H351.233C354.2 113.373 356.803 119.881 359.028 126.521H256.964C254.819 132.916 253.034 139.425 251.613 146.017H364.372C367.13 158.828 368.52 171.895 368.517 185C368.517 205.445 365.179 225.116 359.026 243.482H256.962C259.181 250.127 261.783 256.636 264.752 262.979H351.231C348.088 269.687 344.544 276.199 340.618 282.48H275.362C279.623 289.279 284.316 295.792 289.398 301.963H326.586C320.873 308.909 314.657 315.426 307.991 321.463C340.668 351.07 384.009 369.108 431.58 369.108C533.26 369.107 615.693 286.685 615.693 185.005C615.693 83.3333 533.263 0.902536 431.58 0.902536" fill="#EE9F2D"/>
<path d="M591.159 287.626C591.159 284.343 593.817 281.676 597.104 281.676C600.39 281.676 603.048 284.343 603.048 287.626C603.048 290.907 600.39 293.573 597.104 293.573C593.819 293.572 591.158 290.909 591.159 287.626ZM597.104 292.147C599.601 292.146 601.624 290.121 601.625 287.626C601.625 285.13 599.602 283.109 597.108 283.109H597.104C594.612 283.105 592.591 285.122 592.587 287.613V287.627C592.584 290.121 594.604 292.146 597.098 292.148C597.099 292.147 597.102 292.147 597.104 292.147ZM596.301 290.239H595.082V285.014H597.286C597.748 285.014 598.217 285.014 598.625 285.275C599.048 285.56 599.287 286.065 599.287 286.586C599.287 287.17 598.942 287.718 598.382 287.931L599.343 290.239H597.994L597.194 288.171H596.302L596.301 290.239ZM596.301 287.275H596.975C597.228 287.275 597.492 287.295 597.719 287.172C597.92 287.044 598.023 286.804 598.023 286.573C598.023 286.373 597.899 286.143 597.727 286.044C597.515 285.91 597.177 285.941 596.95 285.941H596.301V287.275ZM141.429 205.159C139.331 204.916 138.408 204.85 136.967 204.85C125.639 204.85 119.904 208.736 119.904 216.407C119.904 221.136 122.704 224.147 127.07 224.147C135.211 224.147 141.079 216.393 141.429 205.159ZM155.963 239.001H139.403L139.784 231.128C134.732 237.351 127.993 240.308 118.835 240.308C108.002 240.308 100.574 231.846 100.574 219.56C100.574 201.074 113.493 190.288 135.669 190.288C137.933 190.288 140.839 190.493 143.813 190.872C144.434 188.368 144.596 187.296 144.596 185.949C144.596 180.915 141.113 179.038 131.775 179.038C121.998 178.927 113.933 181.367 110.622 182.457C110.831 181.196 113.391 165.372 113.391 165.372C123.352 162.453 129.921 161.355 137.314 161.355C154.476 161.355 163.566 169.06 163.55 183.624C163.583 187.526 162.937 192.342 161.929 198.671C160.194 209.677 156.473 233.253 155.963 239.001ZM92.2113 239.001H72.2236L83.6728 167.209L58.1087 239.001H44.4882L42.8061 167.62L30.7713 239.001H12.0615L27.6902 145.612H56.4287L58.1723 197.885L75.7025 145.612H107.669L92.2113 239.001ZM456.293 205.159C454.204 204.916 453.276 204.85 451.84 204.85C440.516 204.85 434.779 208.736 434.779 216.407C434.779 221.136 437.575 224.147 441.942 224.147C450.084 224.147 455.956 216.393 456.293 205.159ZM470.84 239.001H454.281L454.655 231.128C449.604 237.351 442.86 240.308 433.712 240.308C422.875 240.308 415.455 231.846 415.455 219.56C415.455 201.074 428.365 190.288 450.545 190.288C452.809 190.288 455.711 190.493 458.682 190.872C459.302 188.368 459.465 187.296 459.465 185.949C459.465 180.915 455.986 179.038 446.648 179.038C436.871 178.927 428.814 181.367 425.489 182.457C425.7 181.196 428.268 165.372 428.268 165.372C438.23 162.453 444.794 161.355 452.177 161.355C469.348 161.355 478.438 169.06 478.422 183.624C478.454 187.526 477.809 192.342 476.801 198.671C475.076 209.677 471.345 233.253 470.84 239.001ZM244.799 237.847C239.328 239.57 235.064 240.308 230.44 240.308C220.222 240.308 214.645 234.436 214.645 223.624C214.499 220.27 216.115 211.44 217.384 203.381C218.537 196.286 226.05 151.555 226.05 151.555H245.918L243.598 163.051H255.598L252.887 181.304H240.844C238.536 195.748 235.25 213.74 235.212 216.124C235.212 220.039 237.302 221.748 242.053 221.748C244.331 221.748 246.095 221.516 247.443 221.03L244.799 237.847ZM305.713 237.232C298.888 239.317 292.303 240.326 285.324 240.309C263.085 240.287 251.491 228.672 251.491 206.43C251.491 180.468 266.24 161.356 286.261 161.356C302.64 161.356 313.102 172.056 313.102 188.839C313.102 194.407 312.384 199.843 310.653 207.518H271.089C269.752 218.535 276.802 223.125 288.358 223.125C295.471 223.125 301.884 221.658 309.016 218.343L305.713 237.232ZM294.547 192.206C294.656 190.624 296.653 178.65 285.303 178.65C278.973 178.65 274.448 183.475 272.605 192.206H294.547ZM167.962 187.061C167.962 196.668 172.619 203.291 183.184 208.267C191.278 212.071 192.53 213.199 192.53 216.646C192.53 221.382 188.961 223.518 181.051 223.518C175.09 223.518 169.544 222.588 163.146 220.523C163.146 220.523 160.517 237.262 160.397 238.063C164.941 239.053 168.992 239.971 181.197 240.309C202.286 240.309 212.026 232.279 212.026 214.924C212.026 204.488 207.949 198.364 197.936 193.762C189.556 189.916 188.594 189.056 188.594 185.51C188.594 181.403 191.915 179.309 198.376 179.309C202.299 179.309 207.658 179.727 212.735 180.45L215.582 162.835C210.406 162.014 202.56 161.356 197.992 161.356C175.633 161.356 167.893 173.035 167.962 187.061ZM402.926 163.352C408.478 163.352 413.653 164.808 420.786 168.398L424.054 148.129C421.127 146.981 410.82 140.232 402.089 140.232C388.713 140.232 377.406 146.868 369.453 157.822C357.853 153.98 353.085 161.745 347.239 169.48L342.047 170.689C342.44 168.143 342.796 165.612 342.676 163.052H324.321C321.813 186.557 317.368 210.365 313.889 233.898L312.983 239.002H332.978C336.316 217.317 338.146 203.432 339.256 194.036L346.787 189.847C347.911 185.663 351.432 184.249 358.495 184.42C357.546 189.556 357.071 194.768 357.077 199.993C357.077 224.839 370.483 240.309 392 240.309C397.543 240.309 402.3 239.578 409.663 237.584L413.182 216.291C406.556 219.553 401.119 221.087 396.196 221.087C384.577 221.087 377.547 212.511 377.547 198.334C377.546 177.77 388.003 163.352 402.926 163.352Z" fill="black"/>
<path d="M97.9591 233.451H77.9683L89.4247 161.669L63.8606 233.451H50.238L48.5539 162.079L36.5201 233.451H17.8093L33.438 140.075H62.1765L62.9847 197.882L82.3734 140.075H113.417L97.9591 233.451Z" fill="white"/>
<path d="M572.123 145.615L567.693 172.598C562.227 165.406 556.356 160.201 548.604 160.201C538.518 160.201 529.338 167.846 523.33 179.098C514.963 177.363 506.308 174.418 506.308 174.418L506.304 174.487C506.978 168.197 507.247 164.359 507.188 163.055H488.829C486.329 186.56 481.885 210.368 478.411 233.901L477.495 239.005H497.487C500.188 221.47 502.256 206.91 503.777 195.363C510.607 189.192 514.026 183.807 520.927 184.166C517.872 191.557 516.081 200.068 516.081 208.799C516.081 227.787 525.688 240.312 540.218 240.312C547.543 240.312 553.162 237.787 558.645 231.932L557.71 238.993H576.615L591.838 145.615H572.123ZM547.128 221.453C540.324 221.453 536.889 216.418 536.889 206.482C536.889 191.556 543.321 180.969 552.389 180.969C559.255 180.969 562.973 186.204 562.973 195.849C562.974 210.907 556.441 221.453 547.128 221.453Z" fill="black"/>
<path d="M147.169 199.626C145.075 199.384 144.148 199.318 142.712 199.318C131.382 199.318 125.651 203.203 125.651 210.874C125.651 215.596 128.451 218.614 132.81 218.614C140.959 218.613 146.827 210.862 147.169 199.626ZM161.712 233.455H145.152L145.528 225.596C140.481 231.805 133.733 234.775 124.584 234.775C113.746 234.775 106.323 226.314 106.323 214.028C106.323 195.533 119.237 184.754 141.416 184.754C143.682 184.754 146.588 184.959 149.558 185.339C150.177 182.835 150.339 181.763 150.339 180.408C150.339 175.374 146.861 173.506 137.523 173.506C127.741 173.395 119.682 175.836 116.365 176.913C116.574 175.655 119.134 159.848 119.134 159.848C129.092 156.917 135.669 155.817 143.053 155.817C160.22 155.817 169.314 163.528 169.297 178.079C169.327 181.997 168.677 186.809 167.673 193.13C165.942 204.13 162.216 227.72 161.712 233.455ZM429.794 142.592L426.52 162.866C419.392 159.28 414.212 157.818 408.667 157.818C393.742 157.818 383.282 172.237 383.282 192.8C383.282 206.975 390.315 215.55 401.931 215.55C406.854 215.55 412.286 214.019 418.91 210.753L415.402 232.035C408.034 234.044 403.283 234.775 397.734 234.775C376.22 234.775 362.811 219.305 362.811 194.458C362.811 161.074 381.333 137.74 407.825 137.74C416.55 137.742 426.862 141.442 429.794 142.592ZM462.042 199.626C459.949 199.384 459.026 199.318 457.585 199.318C446.259 199.318 440.524 203.203 440.524 210.874C440.524 215.596 443.323 218.614 447.687 218.614C455.828 218.613 461.699 210.862 462.042 199.626ZM476.585 233.455H460.02L460.4 225.596C455.35 231.805 448.605 234.775 439.456 234.775C428.622 234.775 421.196 226.314 421.196 214.028C421.196 195.533 434.114 184.754 456.285 184.754C458.555 184.754 461.456 184.959 464.43 185.339C465.046 182.835 465.212 181.763 465.212 180.408C465.212 175.374 461.733 173.506 452.396 173.506C442.618 173.395 434.554 175.836 431.238 176.913C431.447 175.655 434.011 159.848 434.011 159.848C443.969 156.917 450.54 155.817 457.925 155.817C475.096 155.817 484.186 163.528 484.164 178.079C484.199 181.997 483.554 186.809 482.545 193.13C480.819 204.13 477.084 227.72 476.585 233.455ZM250.544 232.305C245.069 234.028 240.804 234.775 236.185 234.775C225.966 234.775 220.39 228.903 220.39 218.092C220.248 214.727 221.864 205.907 223.133 197.848C224.282 190.745 231.796 146.019 231.796 146.019H251.659L249.342 157.519H259.539L256.826 175.763H246.595C244.287 190.215 240.992 208.193 240.958 210.583C240.958 214.511 243.052 216.206 247.8 216.206C250.077 216.206 251.839 215.984 253.189 215.496L250.544 232.305ZM311.458 231.698C304.638 233.784 298.043 234.789 291.069 234.775C268.829 234.754 257.236 223.138 257.236 200.895C257.236 174.925 271.985 155.818 292.005 155.818C308.385 155.818 318.846 166.515 318.846 183.306C318.846 188.878 318.128 194.314 316.403 201.985H276.839C275.499 213.001 282.551 217.596 294.108 217.596C301.215 217.596 307.634 216.125 314.761 212.8L311.458 231.698ZM300.287 186.66C300.407 185.083 302.399 173.105 291.043 173.105C284.719 173.105 280.193 177.943 278.351 186.66H300.287ZM173.702 181.528C173.702 191.133 178.361 197.75 188.925 202.733C197.018 206.536 198.271 207.669 198.271 211.113C198.271 215.848 194.698 217.985 186.797 217.985C180.831 217.985 175.284 217.053 168.882 214.99C168.882 214.99 166.262 231.728 166.144 232.528C170.677 233.52 174.732 234.426 186.937 234.775C208.032 234.775 217.767 226.746 217.767 209.395C217.767 198.954 213.694 192.831 203.677 188.229C195.3 184.374 194.331 183.528 194.331 179.976C194.331 175.874 197.659 173.763 204.117 173.763C208.036 173.763 213.395 174.194 218.48 174.917L221.322 157.296C216.152 156.476 208.306 155.818 203.736 155.818C181.373 155.818 173.639 167.489 173.702 181.528ZM582.369 233.455H563.459L564.4 226.386C558.916 232.249 553.297 234.775 545.972 234.775C531.441 234.775 521.839 222.249 521.839 203.263C521.839 178.001 536.732 156.706 554.361 156.706C562.113 156.706 567.982 159.873 573.442 167.06L577.878 140.078H597.592L582.369 233.455ZM552.887 215.908C562.195 215.908 568.733 205.361 568.733 190.315C568.733 180.669 565.01 175.434 558.144 175.434C549.079 175.434 542.64 186.015 542.64 200.947C542.639 210.881 546.083 215.908 552.887 215.908ZM494.587 157.519C492.085 181.024 487.64 204.832 484.164 228.353L483.25 233.455H503.241C510.391 187.019 512.121 177.951 523.331 179.087C525.118 169.584 528.441 161.258 530.92 157.057C522.548 155.314 517.873 160.045 511.753 169.032C512.236 165.148 513.121 161.374 512.946 157.519H494.587ZM330.053 157.519C327.545 181.024 323.099 204.832 319.626 228.353L318.716 233.455H338.716C345.856 187.019 347.584 177.951 358.787 179.087C360.581 169.584 363.907 161.258 366.376 157.057C358.013 155.314 353.334 160.045 347.219 169.032C347.701 165.148 348.578 161.374 348.411 157.519H330.053ZM591.151 227.511C591.151 224.214 593.813 221.562 597.095 221.562C600.374 221.559 603.036 224.215 603.039 227.495V227.511C603.038 230.793 600.377 233.453 597.095 233.455C593.813 233.453 591.153 230.793 591.151 227.511ZM597.095 232.028C599.59 232.029 601.611 230.007 601.611 227.514V227.512C601.614 225.016 599.593 222.993 597.099 222.991H597.095C594.598 222.992 592.574 225.015 592.573 227.512C592.576 230.006 594.6 232.028 597.095 232.028ZM596.291 230.11H595.073V224.895H597.282C597.739 224.895 598.213 224.904 598.611 225.156C599.038 225.446 599.282 225.943 599.282 226.463C599.282 227.052 598.935 227.604 598.371 227.813L599.336 230.107H597.984L597.184 228.047H596.291V230.107V230.11ZM596.291 227.156H596.962C597.213 227.156 597.488 227.174 597.71 227.053C597.91 226.925 598.012 226.683 598.012 226.451C598.003 226.236 597.894 226.037 597.718 225.914C597.509 225.794 597.162 225.827 596.935 225.827H596.29L596.291 227.156Z" fill="white"/>
</svg>
