<svg width="18" height="18" viewBox="0 0 18 18" fill="none" xmlns="http://www.w3.org/2000/svg">
<path d="M8.99941 18C13.9697 18 17.9988 13.9706 17.9988 9C17.9988 4.02944 13.9697 0 8.99941 0C4.02917 0 0 4.02944 0 9C0 13.9706 4.02917 18 8.99941 18Z" fill="#E67E22"/>
<path d="M17.9999 9C17.9999 8.63333 17.9774 8.272 17.9348 7.91685L13.0002 3L5.00073 16L6.455 17.6342C7.26222 17.8719 8.11635 18 9.00047 18C13.9707 18 17.9999 13.9705 17.9999 9Z" fill="#C66620"/>
<path d="M11.9414 3C11.9414 3.40606 11.6122 3.73527 11.2062 3.73527C10.8001 3.73527 10.471 3.40606 10.471 3H9.73576C9.73576 3.40606 9.40657 3.73527 9.00053 3.73527C8.5945 3.73527 8.26525 3.40606 8.26525 3H7.53002C7.53002 3.40606 7.20083 3.73527 6.7948 3.73527C6.3887 3.73527 6.05957 3.40606 6.05957 3H5.00073V16H6.06103C6.07703 15.6081 6.39888 15.295 6.79474 15.295C7.19059 15.295 7.51245 15.6081 7.52845 16H8.26676C8.28276 15.6081 8.60462 15.295 9.00047 15.295C9.39633 15.295 9.71818 15.6081 9.73418 16H10.4725C10.4885 15.6081 10.8104 15.295 11.2062 15.295C11.6021 15.295 11.9239 15.6081 11.9399 16H13.0002V3H11.9414Z" fill="white"/>
<path d="M12.0608 5.1969H5.93994V5.80296H12.0608V5.1969Z" fill="#C0C0B8"/>
<path d="M12.0608 7.00012H5.93994V7.60618H12.0608V7.00012Z" fill="#C0C0B8"/>
<path d="M12.0608 9H5.93994V9.60606H12.0608V9Z" fill="#C0C0B8"/>
<path d="M12.0597 12.3939H9.99927V13H12.0597V12.3939Z" fill="#C0C0B8"/>
</svg>
