<svg width="14" height="18" viewBox="0 0 14 18" fill="none" xmlns="http://www.w3.org/2000/svg">
<g clip-path="url(#clip0_4809_10809)">
<path d="M0 0.247377H3.19797V2.11314C4.12183 0.749701 5.61421 -0.111418 7.24873 -0.0396584C8.74111 -0.0396584 10.1624 0.606181 11.0863 1.75434C12.1523 2.9025 12.6497 4.55298 12.6497 6.63402C12.6497 8.78682 12.1523 10.4373 11.0863 11.6572C10.0914 12.8054 8.74111 13.4512 7.24873 13.4512C6.60913 13.4512 5.89848 13.3077 5.32995 13.0207C4.61929 12.6619 3.9797 12.1595 3.48223 11.5855V18.0438H0V0.247377ZM3.41117 6.41874C3.41117 7.85394 3.69543 8.93034 4.26396 9.64794C4.76142 10.2938 5.54315 10.7243 6.39594 10.6526C7.17766 10.6526 7.88833 10.2938 8.38579 9.71969C8.88325 9.07385 9.16751 8.06922 9.16751 6.63402C9.16751 5.27058 8.88325 4.26593 8.31472 3.62009C7.81726 2.97425 7.1066 2.61546 6.25381 2.61546C5.47208 2.61546 4.69036 2.97426 4.19289 3.54834C3.69543 4.19418 3.41117 5.19882 3.41117 6.41874Z" fill="#FF0000"/>
<path d="M11.4326 17.9545V15.4429H13.9199V17.9545H11.4326Z" fill="black"/>
</g>
<defs>
<clipPath id="clip0_4809_10809">
<rect width="14" height="18" fill="white"/>
</clipPath>
</defs>
</svg>
