<svg width="18" height="18" viewBox="0 0 18 18" fill="none" xmlns="http://www.w3.org/2000/svg">
<path d="M9 18C13.9706 18 18 13.9706 18 9C18 4.02944 13.9706 0 9 0C4.02944 0 0 4.02944 0 9C0 13.9706 4.02944 18 9 18Z" fill="#345065"/>
<path d="M3.28662 11.6671L9.66983 17.9751C14.1463 17.6459 17.712 14.0425 17.983 9.55017L14.6904 6.30847L3.28662 11.6671Z" fill="#263D49"/>
<path d="M4.05533 6.00006C3.47236 6.00006 2.99976 6.47267 2.99976 7.05564V10.9445C2.99976 11.5275 3.47236 12.0001 4.05533 12.0001H7.2826V6.00006H4.05533Z" fill="white"/>
<path d="M10.6767 6.00006H7.28271V12.0001H10.6767V6.00006Z" fill="white"/>
<path d="M13.9446 6.00006H10.677V12.0001H13.9446C14.5276 12.0001 15.0002 11.5275 15.0002 10.9445V7.05564C15.0002 6.47267 14.5276 6.00006 13.9446 6.00006Z" fill="#C63C22"/>
<path d="M4.76693 10.8751C4.68165 10.8751 4.59632 10.8425 4.53123 10.7774C4.40105 10.6473 4.40105 10.4362 4.53123 10.3061L7.61462 7.2227C7.74468 7.09252 7.9559 7.09252 8.08596 7.2227C8.21614 7.35282 8.21614 7.56391 8.08596 7.69403L5.00256 10.7774C4.93759 10.8425 4.8522 10.8751 4.76693 10.8751Z" fill="#394C81"/>
<path d="M5.1855 8.87488C4.6352 8.87488 4.1875 8.42712 4.1875 7.87681C4.1875 7.61027 4.29132 7.3596 4.4798 7.17106C4.66823 6.98263 4.91883 6.87881 5.18538 6.87881C5.18544 6.87881 5.1855 6.87881 5.1855 6.87881C5.7358 6.87881 6.18356 7.32651 6.18356 7.87681C6.18356 8.42712 5.7358 8.87488 5.1855 8.87488ZM5.18544 7.54548C5.09695 7.54548 5.0138 7.57991 4.95126 7.64251C4.88865 7.70506 4.85417 7.78827 4.85417 7.87681C4.85417 8.05954 5.00277 8.20821 5.1855 8.20821C5.36823 8.20821 5.51689 8.05954 5.51689 7.87681C5.51689 7.69409 5.36817 7.54548 5.18544 7.54548Z" fill="#394C81"/>
<path d="M7.43208 11.1212C6.88178 11.1212 6.43408 10.6734 6.43408 10.1231C6.43408 9.57282 6.88178 9.12512 7.43208 9.12512C7.98238 9.12512 8.43014 9.57282 8.43014 10.1231C8.43014 10.6734 7.98238 11.1212 7.43208 11.1212ZM7.43208 9.79179C7.24935 9.79179 7.10075 9.9404 7.10075 10.1231C7.10075 10.3058 7.24935 10.4545 7.43208 10.4545C7.61481 10.4545 7.76348 10.3058 7.76348 10.1231C7.76348 9.94046 7.61481 9.79179 7.43208 9.79179Z" fill="#394C81"/>
<path d="M14.3384 8.81818H11.3384V9.18181H14.3384V8.81818Z" fill="#D0D5D9"/>
<path d="M14.3384 9.63638H11.3384V10H14.3384V9.63638Z" fill="#D0D5D9"/>
<path d="M14.3384 7.99997H11.3384V8.36361H14.3384V7.99997Z" fill="#D0D5D9"/>
</svg>
