<svg width="678" height="208" viewBox="0 0 678 208" fill="none" xmlns="http://www.w3.org/2000/svg">
<path d="M239.718 205.262L273.934 4.48206H328.662L294.421 205.262H239.718ZM492.138 8.81026C481.297 4.74257 464.306 0.377441 443.09 0.377441C389.013 0.377441 350.921 27.6082 350.598 66.6369C350.291 95.4882 377.792 111.583 398.549 121.187C419.852 131.028 427.012 137.304 426.912 146.092C426.777 159.55 409.9 165.698 394.171 165.698C372.267 165.698 360.63 162.655 342.656 155.159L335.604 151.969L327.923 196.916C340.706 202.52 364.343 207.375 388.885 207.627C446.413 207.627 483.757 180.708 484.183 139.03C484.388 116.19 469.808 98.8082 438.234 84.478C419.106 75.1908 407.391 68.9918 407.515 59.5877C407.515 51.2421 417.431 42.3169 438.855 42.3169C456.752 42.04 469.717 45.9426 479.817 50.0092L484.721 52.3272L492.138 8.81026ZM632.969 4.47897H590.68C577.579 4.47897 567.775 8.05539 562.022 21.1292L480.747 205.129H538.214C538.214 205.129 547.609 180.388 549.734 174.957C556.016 174.957 611.842 175.043 619.825 175.043C621.461 182.072 626.481 205.129 626.481 205.129H677.264L632.969 4.47282V4.47897ZM565.874 134.13C570.399 122.562 587.679 78.0041 587.679 78.0041C587.355 78.5395 592.17 66.3795 594.934 58.841L598.632 76.1528C598.632 76.1528 609.113 124.08 611.302 134.13H565.874ZM193.258 4.47897L139.679 141.402L133.969 113.576C123.995 81.5016 92.9178 46.7508 58.1763 29.3528L107.167 204.943L165.071 204.877L251.229 4.47692H193.258" fill="#0E4595"/>
<path d="M89.6871 4.47177H1.43992L0.741455 8.6492C69.3958 25.2687 114.824 65.4318 133.685 113.685L114.495 21.4184C111.182 8.70561 101.575 4.91175 89.6892 4.46765" fill="#F2AE14"/>
</svg>
